# xmcd
# 
# Track frame offsets:
#     150
#     20938
#     35361
#     50982
#     65347
#     84773
#     107884
#     128451
#     155224
#     174542
#     203800
# 
# Disc length: 3105
# 
# Revision: 1
# Processed by: cddbd v1.5.2PL0 Copyright (c) Steve Scherf et al.
# Submitted via: fre:ac v1.0.17
# 
DISCID=960c1f0b
DTITLE=Charlie Robison - Live At Billy Bob´s Texas - CD 1
DYEAR=2013
DGENRE=Country
TTITLE0=Nothin' Better To Do
TTITLE1=Good Times
TTITLE2=New Year's Day
TTITLE3=Poor Man's Son
TTITLE4=Big City Blues
TTITLE5=Feelin' Good
TTITLE6=Down Again
TTITLE7=Sunset Blvd
TTITLE8=Molly's Blues
TTITLE9=Indianola
TTITLE10=Barlight
EXTD=
EXTT0=
EXTT1=
EXTT2=
EXTT3=
EXTT4=
EXTT5=
EXTT6=
EXTT7=
EXTT8=
EXTT9=
EXTT10=
PLAYORDER=
